<svg width="936" height="1024" viewBox="0 0 936 1024" fill="none" xmlns="http://www.w3.org/2000/svg">
<rect width="888" height="1024" fill="black"/>
<g clip-path="url(#clip0_385_361)">
<path fill-rule="evenodd" clip-rule="evenodd" d="M182.958 479.25C188.939 479.248 194.755 481.205 199.519 484.822C204.282 488.438 207.73 493.515 209.336 499.276L209.652 500.523L221.028 497.683C221.859 497.476 222.725 497.447 223.568 497.597C224.412 497.748 225.214 498.076 225.922 498.558C226.63 499.041 227.228 499.667 227.678 500.397C228.127 501.127 228.417 501.943 228.528 502.793L228.583 503.583V514.594C232.014 517.881 234.825 521.759 236.881 526.043L237.72 527.917H240.75C242.24 527.917 243.678 528.464 244.791 529.454C245.905 530.444 246.616 531.808 246.791 533.288L246.833 534V552.25C246.833 553.251 246.586 554.237 246.114 555.12C245.642 556.003 244.959 556.756 244.126 557.311L243.469 557.688L236.364 561.247C233.46 566.878 229.245 571.729 224.075 575.391L222.5 576.45V582.667C222.5 584.157 221.953 585.595 220.962 586.708C219.972 587.822 218.608 588.533 217.128 588.707L216.416 588.75H198.167C196.676 588.75 195.238 588.203 194.125 587.213C193.011 586.223 192.3 584.858 192.126 583.378L192.083 582.667H186C186 584.157 185.453 585.595 184.462 586.708C183.472 587.822 182.108 588.533 180.628 588.707L179.917 588.75H161.667C160.176 588.75 158.738 588.203 157.625 587.213C156.511 586.223 155.8 584.858 155.626 583.378L155.583 582.667V576.45C151.187 573.642 147.389 569.992 144.409 565.71C141.43 561.429 139.327 556.6 138.221 551.502C134.633 550.436 131.46 548.292 129.131 545.362C126.802 542.431 125.431 538.855 125.203 535.119L125.167 534V530.958C125.168 529.408 125.762 527.916 126.826 526.789C127.891 525.662 129.345 524.983 130.893 524.892C132.441 524.801 133.965 525.305 135.154 526.3C136.343 527.295 137.107 528.707 137.291 530.247L137.333 530.958V534C137.341 534.908 137.524 535.75 137.881 536.525C138.808 531.047 140.878 525.827 143.958 521.203C147.037 516.58 151.057 512.657 155.754 509.691C155.322 505.861 155.704 501.984 156.874 498.312C158.044 494.64 159.977 491.257 162.545 488.383C165.113 485.51 168.258 483.211 171.776 481.637C175.294 480.063 179.104 479.25 182.958 479.25ZM210.333 527.917C208.72 527.917 207.172 528.558 206.032 529.698C204.891 530.839 204.25 532.387 204.25 534C204.25 535.613 204.891 537.161 206.032 538.302C207.172 539.442 208.72 540.083 210.333 540.083C211.947 540.083 213.494 539.442 214.635 538.302C215.776 537.161 216.416 535.613 216.416 534C216.416 532.387 215.776 530.839 214.635 529.698C213.494 528.558 211.947 527.917 210.333 527.917ZM182.958 491.417C179.273 491.417 175.714 492.754 172.941 495.181C170.169 497.608 168.372 500.959 167.884 504.611C170.832 503.926 173.848 503.581 176.875 503.583H197.418L197.844 503.48C197.123 500.067 195.25 497.006 192.54 494.809C189.829 492.613 186.447 491.415 182.958 491.417Z" fill="white" fill-opacity="0.3"/>
<path fill-rule="evenodd" clip-rule="evenodd" d="M194.958 476.25C200.939 476.248 206.755 478.205 211.519 481.822C216.282 485.438 219.73 490.515 221.336 496.276L221.652 497.523L233.028 494.683C233.859 494.476 234.725 494.447 235.568 494.597C236.412 494.748 237.214 495.076 237.922 495.558C238.63 496.041 239.228 496.667 239.678 497.397C240.127 498.127 240.417 498.943 240.528 499.793L240.583 500.583V511.594C244.014 514.881 246.825 518.759 248.881 523.043L249.72 524.917H252.75C254.24 524.917 255.678 525.464 256.791 526.454C257.905 527.444 258.616 528.808 258.791 530.288L258.833 531V549.25C258.833 550.251 258.586 551.237 258.114 552.12C257.642 553.003 256.959 553.756 256.126 554.311L255.469 554.688L248.364 558.247C245.46 563.878 241.245 568.729 236.075 572.391L234.5 573.45V579.667C234.5 581.157 233.953 582.595 232.962 583.708C231.972 584.822 230.608 585.533 229.128 585.707L228.416 585.75H210.167C208.676 585.75 207.238 585.203 206.125 584.213C205.011 583.223 204.3 581.858 204.126 580.378L204.083 579.667H198C198 581.157 197.453 582.595 196.462 583.708C195.472 584.822 194.108 585.533 192.628 585.707L191.917 585.75H173.667C172.176 585.75 170.738 585.203 169.625 584.213C168.511 583.223 167.8 581.858 167.626 580.378L167.583 579.667V573.45C163.187 570.642 159.389 566.992 156.409 562.71C153.43 558.429 151.327 553.6 150.221 548.502C146.633 547.436 143.46 545.292 141.131 542.362C138.802 539.431 137.431 535.855 137.203 532.119L137.167 531V527.958C137.168 526.408 137.762 524.916 138.826 523.789C139.891 522.662 141.345 521.983 142.893 521.892C144.441 521.801 145.965 522.305 147.154 523.3C148.343 524.295 149.107 525.707 149.291 527.247L149.333 527.958V531C149.341 531.908 149.524 532.75 149.881 533.525C150.808 528.047 152.878 522.827 155.958 518.203C159.037 513.58 163.057 509.657 167.754 506.691C167.322 502.861 167.704 498.984 168.874 495.312C170.044 491.64 171.977 488.257 174.545 485.383C177.113 482.51 180.258 480.211 183.776 478.637C187.294 477.063 191.104 476.25 194.958 476.25ZM222.333 524.917C220.72 524.917 219.172 525.558 218.032 526.698C216.891 527.839 216.25 529.387 216.25 531C216.25 532.613 216.891 534.161 218.032 535.302C219.172 536.442 220.72 537.083 222.333 537.083C223.947 537.083 225.494 536.442 226.635 535.302C227.776 534.161 228.416 532.613 228.416 531C228.416 529.387 227.776 527.839 226.635 526.698C225.494 525.558 223.947 524.917 222.333 524.917ZM194.958 488.417C191.273 488.417 187.714 489.754 184.941 492.181C182.169 494.608 180.372 497.959 179.884 501.611C182.832 500.926 185.848 500.581 188.875 500.583H209.418L209.844 500.48C209.123 497.067 207.25 494.006 204.54 491.809C201.829 489.613 198.447 488.415 194.958 488.417Z" fill="white"/>
</g>
<g filter="url(#filter0_d_385_361)">
<path d="M301.773 501.909V595H282.091V501.909H301.773ZM429.727 534.5H409.818C409.455 531.924 408.712 529.636 407.591 527.636C406.47 525.606 405.03 523.879 403.273 522.455C401.515 521.03 399.485 519.939 397.182 519.182C394.909 518.424 392.439 518.045 389.773 518.045C384.955 518.045 380.758 519.242 377.182 521.636C373.606 524 370.833 527.455 368.864 532C366.894 536.515 365.909 542 365.909 548.455C365.909 555.091 366.894 560.667 368.864 565.182C370.864 569.697 373.652 573.106 377.227 575.409C380.803 577.712 384.939 578.864 389.636 578.864C392.273 578.864 394.712 578.515 396.955 577.818C399.227 577.121 401.242 576.106 403 574.773C404.758 573.409 406.212 571.758 407.364 569.818C408.545 567.879 409.364 565.667 409.818 563.182L429.727 563.273C429.212 567.545 427.924 571.667 425.864 575.636C423.833 579.576 421.091 583.106 417.636 586.227C414.212 589.318 410.121 591.773 405.364 593.591C400.636 595.379 395.288 596.273 389.318 596.273C381.015 596.273 373.591 594.394 367.045 590.636C360.53 586.879 355.379 581.439 351.591 574.318C347.833 567.197 345.955 558.576 345.955 548.455C345.955 538.303 347.864 529.667 351.682 522.545C355.5 515.424 360.682 510 367.227 506.273C373.773 502.515 381.136 500.636 389.318 500.636C394.712 500.636 399.712 501.394 404.318 502.909C408.955 504.424 413.061 506.636 416.636 509.545C420.212 512.424 423.121 515.955 425.364 520.136C427.636 524.318 429.091 529.106 429.727 534.5ZM458.136 595H437.045L469.182 501.909H494.545L526.636 595H505.545L482.227 523.182H481.5L458.136 595ZM456.818 558.409H506.636V573.773H456.818V558.409ZM522.92 518.136V501.909H599.375V518.136H570.875V595H551.42V518.136H522.92ZM616.636 595H595.545L627.682 501.909H653.045L685.136 595H664.045L640.727 523.182H640L616.636 595ZM615.318 558.409H665.136V573.773H615.318V558.409ZM681.42 518.136V501.909H757.875V518.136H729.375V595H709.92V518.136H681.42Z" fill="white" fill-opacity="0.4" shape-rendering="crispEdges"/>
</g>
<g filter="url(#filter1_d_385_361)">
<path d="M312.773 488.909V582H293.091V488.909H312.773ZM440.727 521.5H420.818C420.455 518.924 419.712 516.636 418.591 514.636C417.47 512.606 416.03 510.879 414.273 509.455C412.515 508.03 410.485 506.939 408.182 506.182C405.909 505.424 403.439 505.045 400.773 505.045C395.955 505.045 391.758 506.242 388.182 508.636C384.606 511 381.833 514.455 379.864 519C377.894 523.515 376.909 529 376.909 535.455C376.909 542.091 377.894 547.667 379.864 552.182C381.864 556.697 384.652 560.106 388.227 562.409C391.803 564.712 395.939 565.864 400.636 565.864C403.273 565.864 405.712 565.515 407.955 564.818C410.227 564.121 412.242 563.106 414 561.773C415.758 560.409 417.212 558.758 418.364 556.818C419.545 554.879 420.364 552.667 420.818 550.182L440.727 550.273C440.212 554.545 438.924 558.667 436.864 562.636C434.833 566.576 432.091 570.106 428.636 573.227C425.212 576.318 421.121 578.773 416.364 580.591C411.636 582.379 406.288 583.273 400.318 583.273C392.015 583.273 384.591 581.394 378.045 577.636C371.53 573.879 366.379 568.439 362.591 561.318C358.833 554.197 356.955 545.576 356.955 535.455C356.955 525.303 358.864 516.667 362.682 509.545C366.5 502.424 371.682 497 378.227 493.273C384.773 489.515 392.136 487.636 400.318 487.636C405.712 487.636 410.712 488.394 415.318 489.909C419.955 491.424 424.061 493.636 427.636 496.545C431.212 499.424 434.121 502.955 436.364 507.136C438.636 511.318 440.091 516.106 440.727 521.5ZM469.136 582H448.045L480.182 488.909H505.545L537.636 582H516.545L493.227 510.182H492.5L469.136 582ZM467.818 545.409H517.636V560.773H467.818V545.409ZM533.92 505.136V488.909H610.375V505.136H581.875V582H562.42V505.136H533.92ZM627.636 582H606.545L638.682 488.909H664.045L696.136 582H675.045L651.727 510.182H651L627.636 582ZM626.318 545.409H676.136V560.773H626.318V545.409ZM692.42 505.136V488.909H768.875V505.136H740.375V582H720.92V505.136H692.42Z" fill="white"/>
</g>
<path d="M589 642L889.511 1024.5H288.489L589 642Z" fill="white"/>
<path d="M297 381L597.511 -1.5H-3.5108L297 381Z" fill="white"/>
<defs>
<filter id="filter0_d_385_361" x="278.091" y="500.637" width="483.784" height="103.636" filterUnits="userSpaceOnUse" color-interpolation-filters="sRGB">
<feFlood flood-opacity="0" result="BackgroundImageFix"/>
<feColorMatrix in="SourceAlpha" type="matrix" values="0 0 0 0 0 0 0 0 0 0 0 0 0 0 0 0 0 0 127 0" result="hardAlpha"/>
<feOffset dy="4"/>
<feGaussianBlur stdDeviation="2"/>
<feComposite in2="hardAlpha" operator="out"/>
<feColorMatrix type="matrix" values="0 0 0 0 0 0 0 0 0 0 0 0 0 0 0 0 0 0 0.25 0"/>
<feBlend mode="normal" in2="BackgroundImageFix" result="effect1_dropShadow_385_361"/>
<feBlend mode="normal" in="SourceGraphic" in2="effect1_dropShadow_385_361" result="shape"/>
</filter>
<filter id="filter1_d_385_361" x="289.091" y="487.637" width="483.784" height="103.636" filterUnits="userSpaceOnUse" color-interpolation-filters="sRGB">
<feFlood flood-opacity="0" result="BackgroundImageFix"/>
<feColorMatrix in="SourceAlpha" type="matrix" values="0 0 0 0 0 0 0 0 0 0 0 0 0 0 0 0 0 0 127 0" result="hardAlpha"/>
<feOffset dy="4"/>
<feGaussianBlur stdDeviation="2"/>
<feComposite in2="hardAlpha" operator="out"/>
<feColorMatrix type="matrix" values="0 0 0 0 0 0 0 0 0 0 0 0 0 0 0 0 0 0 0.25 0"/>
<feBlend mode="normal" in2="BackgroundImageFix" result="effect1_dropShadow_385_361"/>
<feBlend mode="normal" in="SourceGraphic" in2="effect1_dropShadow_385_361" result="shape"/>
</filter>
<clipPath id="clip0_385_361">
<rect width="146" height="146" fill="white" transform="translate(113 461)"/>
</clipPath>
</defs>
</svg>
