<svg width="252" height="222" viewBox="0 0 252 222" fill="none" xmlns="http://www.w3.org/2000/svg">
<rect width="252" height="222" fill="black"/>
<g clip-path="url(#clip0_391_362)">
<path fill-rule="evenodd" clip-rule="evenodd" d="M122.958 56.25C128.939 56.2484 134.755 58.2055 139.519 61.8219C144.282 65.4384 147.73 70.5152 149.336 76.2763L149.652 77.5234L161.028 74.6825C161.859 74.4755 162.725 74.4466 163.568 74.5975C164.412 74.7484 165.214 75.0758 165.922 75.5582C166.63 76.0406 167.228 76.6672 167.678 77.3969C168.127 78.1266 168.417 78.943 168.528 79.7925L168.583 80.5833V91.5942C172.014 94.8809 174.825 98.7592 176.881 103.043L177.72 104.917H180.75C182.24 104.917 183.678 105.464 184.791 106.454C185.905 107.444 186.616 108.808 186.791 110.288L186.833 111V129.25C186.833 130.251 186.586 131.237 186.114 132.12C185.642 133.003 184.959 133.756 184.126 134.311L183.469 134.689L176.364 138.247C173.46 143.878 169.245 148.729 164.075 152.391L162.5 153.45V159.667C162.5 161.157 161.953 162.595 160.962 163.708C159.972 164.822 158.608 165.533 157.128 165.707L156.416 165.75H138.167C136.676 165.75 135.238 165.203 134.125 164.213C133.011 163.223 132.3 161.858 132.126 160.378L132.083 159.667H126C126 161.157 125.453 162.595 124.462 163.708C123.472 164.822 122.108 165.533 120.628 165.707L119.917 165.75H101.667C100.176 165.75 98.7384 165.203 97.6249 164.213C96.5114 163.223 95.8001 161.858 95.6258 160.378L95.5832 159.667V153.45C91.1867 150.642 87.3892 146.992 84.4095 142.71C81.4297 138.429 79.3266 133.6 78.2213 128.502C74.6333 127.436 71.4598 125.292 69.1311 122.362C66.8023 119.431 65.431 115.855 65.203 112.119L65.1665 111V107.958C65.1682 106.408 65.7619 104.916 66.8263 103.789C67.8907 102.662 69.3455 101.983 70.8933 101.892C72.4412 101.801 73.9653 102.305 75.1543 103.3C76.3433 104.295 77.1075 105.707 77.2906 107.247L77.3332 107.958V111C77.3413 111.908 77.5238 112.75 77.8807 113.525C78.8077 108.047 80.8785 102.827 83.958 98.2035C87.0375 93.58 91.0566 89.6573 95.7535 86.691C95.3219 82.8614 95.7037 78.9839 96.874 75.3121C98.0442 71.6403 99.9766 68.2569 102.545 65.3834C105.113 62.5099 108.258 60.211 111.776 58.6371C115.294 57.0632 119.104 56.2497 122.958 56.25ZM150.333 104.917C148.72 104.917 147.172 105.558 146.032 106.698C144.891 107.839 144.25 109.387 144.25 111C144.25 112.613 144.891 114.161 146.032 115.302C147.172 116.442 148.72 117.083 150.333 117.083C151.947 117.083 153.494 116.442 154.635 115.302C155.776 114.161 156.416 112.613 156.416 111C156.416 109.387 155.776 107.839 154.635 106.698C153.494 105.558 151.947 104.917 150.333 104.917ZM122.958 68.4167C119.273 68.4167 115.714 69.7544 112.941 72.1813C110.169 74.6082 108.372 77.9591 107.884 81.6114C110.832 80.9258 113.848 80.5808 116.875 80.5833H137.418L137.844 80.4799C137.123 77.0669 135.25 74.0057 132.54 71.8094C129.829 69.613 126.447 68.4152 122.958 68.4167Z" fill="white" fill-opacity="0.3"/>
<path fill-rule="evenodd" clip-rule="evenodd" d="M134.958 53.25C140.939 53.2484 146.755 55.2055 151.519 58.8219C156.282 62.4384 159.73 67.5152 161.336 73.2763L161.652 74.5234L173.028 71.6825C173.859 71.4755 174.725 71.4466 175.568 71.5975C176.412 71.7484 177.214 72.0758 177.922 72.5582C178.63 73.0406 179.228 73.6672 179.678 74.3969C180.127 75.1266 180.417 75.943 180.528 76.7925L180.583 77.5833V88.5942C184.014 91.8809 186.825 95.7592 188.881 100.043L189.72 101.917H192.75C194.24 101.917 195.678 102.464 196.791 103.454C197.905 104.444 198.616 105.808 198.791 107.288L198.833 108V126.25C198.833 127.251 198.586 128.237 198.114 129.12C197.642 130.003 196.959 130.756 196.126 131.311L195.469 131.689L188.364 135.247C185.46 140.878 181.245 145.729 176.075 149.391L174.5 150.45V156.667C174.5 158.157 173.953 159.595 172.962 160.708C171.972 161.822 170.608 162.533 169.128 162.707L168.416 162.75H150.167C148.676 162.75 147.238 162.203 146.125 161.213C145.011 160.223 144.3 158.858 144.126 157.378L144.083 156.667H138C138 158.157 137.453 159.595 136.462 160.708C135.472 161.822 134.108 162.533 132.628 162.707L131.917 162.75H113.667C112.176 162.75 110.738 162.203 109.625 161.213C108.511 160.223 107.8 158.858 107.626 157.378L107.583 156.667V150.45C103.187 147.642 99.3892 143.992 96.4095 139.71C93.4297 135.429 91.3266 130.6 90.2213 125.502C86.6333 124.436 83.4598 122.292 81.1311 119.362C78.8023 116.431 77.431 112.855 77.203 109.119L77.1665 108V104.958C77.1682 103.408 77.7619 101.916 78.8263 100.789C79.8907 99.6615 81.3455 98.9831 82.8933 98.8922C84.4412 98.8013 85.9653 99.3049 87.1543 100.3C88.3433 101.295 89.1075 102.707 89.2906 104.247L89.3332 104.958V108C89.3413 108.908 89.5238 109.75 89.8807 110.525C90.8077 105.047 92.8785 99.8269 95.958 95.2035C99.0375 90.58 103.057 86.6573 107.754 83.691C107.322 79.8614 107.704 75.9839 108.874 72.3121C110.044 68.6403 111.977 65.2569 114.545 62.3834C117.113 59.5099 120.258 57.211 123.776 55.6371C127.294 54.0632 131.104 53.2497 134.958 53.25ZM162.333 101.917C160.72 101.917 159.172 102.558 158.032 103.698C156.891 104.839 156.25 106.387 156.25 108C156.25 109.613 156.891 111.161 158.032 112.302C159.172 113.442 160.72 114.083 162.333 114.083C163.947 114.083 165.494 113.442 166.635 112.302C167.776 111.161 168.416 109.613 168.416 108C168.416 106.387 167.776 104.839 166.635 103.698C165.494 102.558 163.947 101.917 162.333 101.917ZM134.958 65.4167C131.273 65.4167 127.714 66.7544 124.941 69.1813C122.169 71.6082 120.372 74.9591 119.884 78.6114C122.832 77.9258 125.848 77.5808 128.875 77.5833H149.418L149.844 77.4799C149.123 74.0669 147.25 71.0057 144.54 68.8094C141.829 66.613 138.447 65.4152 134.958 65.4167Z" fill="white"/>
</g>
<defs>
<clipPath id="clip0_391_362">
<rect width="146" height="146" fill="white" transform="translate(53 38)"/>
</clipPath>
</defs>
</svg>
